<mxfile host="app.diagrams.net" modified="2021-09-29T19:20:44.331Z" agent="5.0 (Windows NT 10.0; Win64; x64) AppleWebKit/537.36 (KHTML, like Gecko) Chrome/93.0.4577.82 Safari/537.36" etag="h5KOE9r3k0M3k1ngsnlK" version="15.3.8" type="github">
  <diagram id="uRf2MRRO1xXy1C_5ta0l" name="Page-1">
    <mxGraphModel dx="1038" dy="539" grid="1" gridSize="10" guides="1" tooltips="1" connect="1" arrows="1" fold="1" page="1" pageScale="1" pageWidth="850" pageHeight="1100" math="0" shadow="0">
      <root>
        <mxCell id="0" />
        <mxCell id="1" parent="0" />
        <mxCell id="ONZwR2w4GfBlqja92-8s-3" style="edgeStyle=orthogonalEdgeStyle;rounded=0;orthogonalLoop=1;jettySize=auto;html=1;entryX=0.5;entryY=0;entryDx=0;entryDy=0;" edge="1" parent="1" source="ONZwR2w4GfBlqja92-8s-1" target="ONZwR2w4GfBlqja92-8s-2">
          <mxGeometry relative="1" as="geometry">
            <Array as="points">
              <mxPoint x="230" y="90" />
            </Array>
          </mxGeometry>
        </mxCell>
        <mxCell id="ONZwR2w4GfBlqja92-8s-5" style="edgeStyle=orthogonalEdgeStyle;rounded=0;orthogonalLoop=1;jettySize=auto;html=1;entryX=0.5;entryY=0;entryDx=0;entryDy=0;" edge="1" parent="1" source="ONZwR2w4GfBlqja92-8s-1" target="ONZwR2w4GfBlqja92-8s-4">
          <mxGeometry relative="1" as="geometry" />
        </mxCell>
        <mxCell id="ONZwR2w4GfBlqja92-8s-1" value="Actor" style="shape=umlActor;verticalLabelPosition=bottom;verticalAlign=top;html=1;outlineConnect=0;" vertex="1" parent="1">
          <mxGeometry x="410" y="60" width="30" height="60" as="geometry" />
        </mxCell>
        <mxCell id="ONZwR2w4GfBlqja92-8s-11" style="edgeStyle=orthogonalEdgeStyle;rounded=0;orthogonalLoop=1;jettySize=auto;html=1;exitX=0.5;exitY=1;exitDx=0;exitDy=0;entryX=0;entryY=0.5;entryDx=0;entryDy=0;entryPerimeter=0;" edge="1" parent="1" source="ONZwR2w4GfBlqja92-8s-2" target="ONZwR2w4GfBlqja92-8s-10">
          <mxGeometry relative="1" as="geometry" />
        </mxCell>
        <mxCell id="ONZwR2w4GfBlqja92-8s-2" value="store_recipe()" style="rounded=0;whiteSpace=wrap;html=1;" vertex="1" parent="1">
          <mxGeometry x="170" y="210" width="120" height="60" as="geometry" />
        </mxCell>
        <mxCell id="ONZwR2w4GfBlqja92-8s-6" style="edgeStyle=orthogonalEdgeStyle;rounded=0;orthogonalLoop=1;jettySize=auto;html=1;exitX=0.5;exitY=1;exitDx=0;exitDy=0;" edge="1" parent="1" source="ONZwR2w4GfBlqja92-8s-4">
          <mxGeometry relative="1" as="geometry">
            <mxPoint x="620" y="320" as="targetPoint" />
          </mxGeometry>
        </mxCell>
        <mxCell id="ONZwR2w4GfBlqja92-8s-4" value="get_recipe()" style="rounded=0;whiteSpace=wrap;html=1;" vertex="1" parent="1">
          <mxGeometry x="560" y="210" width="120" height="60" as="geometry" />
        </mxCell>
        <mxCell id="ONZwR2w4GfBlqja92-8s-14" style="edgeStyle=orthogonalEdgeStyle;rounded=0;orthogonalLoop=1;jettySize=auto;html=1;" edge="1" parent="1" source="ONZwR2w4GfBlqja92-8s-7">
          <mxGeometry relative="1" as="geometry">
            <mxPoint x="470" y="340" as="targetPoint" />
          </mxGeometry>
        </mxCell>
        <mxCell id="ONZwR2w4GfBlqja92-8s-15" style="edgeStyle=orthogonalEdgeStyle;rounded=0;orthogonalLoop=1;jettySize=auto;html=1;exitX=0.5;exitY=1;exitDx=0;exitDy=0;entryX=0.5;entryY=0;entryDx=0;entryDy=0;" edge="1" parent="1" source="ONZwR2w4GfBlqja92-8s-7" target="ONZwR2w4GfBlqja92-8s-9">
          <mxGeometry relative="1" as="geometry" />
        </mxCell>
        <mxCell id="ONZwR2w4GfBlqja92-8s-7" value="recipe_parser()" style="rounded=0;whiteSpace=wrap;html=1;" vertex="1" parent="1">
          <mxGeometry x="560" y="310" width="120" height="60" as="geometry" />
        </mxCell>
        <mxCell id="ONZwR2w4GfBlqja92-8s-16" style="edgeStyle=orthogonalEdgeStyle;rounded=0;orthogonalLoop=1;jettySize=auto;html=1;exitX=0.5;exitY=1;exitDx=0;exitDy=0;" edge="1" parent="1" source="ONZwR2w4GfBlqja92-8s-9" target="ONZwR2w4GfBlqja92-8s-17">
          <mxGeometry relative="1" as="geometry">
            <mxPoint x="620" y="530" as="targetPoint" />
          </mxGeometry>
        </mxCell>
        <mxCell id="ONZwR2w4GfBlqja92-8s-9" value="recipe_explorer()" style="rounded=0;whiteSpace=wrap;html=1;" vertex="1" parent="1">
          <mxGeometry x="560" y="410" width="120" height="60" as="geometry" />
        </mxCell>
        <mxCell id="ONZwR2w4GfBlqja92-8s-10" value="Recipe Database" style="shape=note;whiteSpace=wrap;html=1;backgroundOutline=1;darkOpacity=0.05;" vertex="1" parent="1">
          <mxGeometry x="385" y="290" width="80" height="100" as="geometry" />
        </mxCell>
        <mxCell id="ONZwR2w4GfBlqja92-8s-17" value="recipe_action()" style="rounded=0;whiteSpace=wrap;html=1;" vertex="1" parent="1">
          <mxGeometry x="560" y="500" width="120" height="60" as="geometry" />
        </mxCell>
      </root>
    </mxGraphModel>
  </diagram>
</mxfile>
